# xmcd CD database file
#
# Track frame offsets:
#	150
#	35583
#	62986
#	96105
#	105684
#	130400
#	169976
#	173845
#	188024
#	231290
#	256378
#
# Disc length: 3492 seconds
#
# Revision: 8
# Processed by: cddbd v1.5.2PL0 Copyright (c) Steve Scherf et al.
# Submitted via: CDex 1.70beta2
#
DISCID=9a0da20b
DTITLE=Polaris - Family
DYEAR=2003
DGENRE=Pop
TTITLE0=星と願うなら
TTITLE1=深呼吸
TTITLE2=流星
TTITLE3=雨とギター
TTITLE4=御空 ～ミソラ～
TTITLE5=甘い海と記憶
TTITLE6=トリオ
TTITLE7=瞬間 introduction
TTITLE8=瞬間
TTITLE9=檸檬
TTITLE10=epilogue
EXTD=YEAR: 2003
EXTT0=
EXTT1=
EXTT2=
EXTT3=
EXTT4=
EXTT5=
EXTT6=
EXTT7=
EXTT8=
EXTT9=
EXTT10=
PLAYORDER=
